<svg xmlns="http://www.w3.org/2000/svg" viewBox="0 0 512 512">
  <defs>
    <linearGradient id="bg" x1="0" y1="0" x2="0" y2="1">
      <stop offset="0" stop-color="#3b2f7a"/>
      <stop offset="1" stop-color="#0f0a2e"/>
    </linearGradient>
  </defs>
  <rect width="512" height="512" rx="112" ry="112" fill="url(#bg)"/>
  <g fill="#5eead4">
    <rect x="158" y="144" width="28" height="28"/>
    <rect x="326" y="144" width="28" height="28"/>
    <rect x="186" y="172" width="28" height="28"/>
    <rect x="298" y="172" width="28" height="28"/>
    <rect x="158" y="200" width="28" height="28"/>
    <rect x="186" y="200" width="28" height="28"/>
    <rect x="214" y="200" width="28" height="28"/>
    <rect x="242" y="200" width="28" height="28"/>
    <rect x="270" y="200" width="28" height="28"/>
    <rect x="298" y="200" width="28" height="28"/>
    <rect x="326" y="200" width="28" height="28"/>
    <rect x="130" y="228" width="28" height="28"/>
    <rect x="158" y="228" width="28" height="28"/>
    <rect x="214" y="228" width="28" height="28"/>
    <rect x="242" y="228" width="28" height="28"/>
    <rect x="270" y="228" width="28" height="28"/>
    <rect x="326" y="228" width="28" height="28"/>
    <rect x="354" y="228" width="28" height="28"/>
    <rect x="102" y="256" width="28" height="28"/>
    <rect x="130" y="256" width="28" height="28"/>
    <rect x="158" y="256" width="28" height="28"/>
    <rect x="186" y="256" width="28" height="28"/>
    <rect x="214" y="256" width="28" height="28"/>
    <rect x="242" y="256" width="28" height="28"/>
    <rect x="270" y="256" width="28" height="28"/>
    <rect x="298" y="256" width="28" height="28"/>
    <rect x="326" y="256" width="28" height="28"/>
    <rect x="354" y="256" width="28" height="28"/>
    <rect x="382" y="256" width="28" height="28"/>
    <rect x="102" y="284" width="28" height="28"/>
    <rect x="158" y="284" width="28" height="28"/>
    <rect x="186" y="284" width="28" height="28"/>
    <rect x="214" y="284" width="28" height="28"/>
    <rect x="242" y="284" width="28" height="28"/>
    <rect x="270" y="284" width="28" height="28"/>
    <rect x="298" y="284" width="28" height="28"/>
    <rect x="326" y="284" width="28" height="28"/>
    <rect x="382" y="284" width="28" height="28"/>
    <rect x="102" y="312" width="28" height="28"/>
    <rect x="158" y="312" width="28" height="28"/>
    <rect x="326" y="312" width="28" height="28"/>
    <rect x="382" y="312" width="28" height="28"/>
    <rect x="186" y="340" width="28" height="28"/>
    <rect x="214" y="340" width="28" height="28"/>
    <rect x="270" y="340" width="28" height="28"/>
    <rect x="298" y="340" width="28" height="28"/>
  </g>
</svg>
